<?xml version="1.0" encoding="UTF-8" standalone="no"?>
<!-- Created with Inkscape (http://www.inkscape.org/) -->

<svg
   width="210mm"
   height="297mm"
   viewBox="0 0 210 297"
   version="1.1"
   id="svg5"
   sodipodi:docname="webapplogin.svg"
   inkscape:version="1.2 (dc2aedaf03, 2022-05-15)"
   xmlns:inkscape="http://www.inkscape.org/namespaces/inkscape"
   xmlns:sodipodi="http://sodipodi.sourceforge.net/DTD/sodipodi-0.dtd"
   xmlns="http://www.w3.org/2000/svg"
   xmlns:svg="http://www.w3.org/2000/svg">
  <sodipodi:namedview
     id="namedview7"
     pagecolor="#ffffff"
     bordercolor="#000000"
     borderopacity="0.25"
     inkscape:showpageshadow="2"
     inkscape:pageopacity="0.0"
     inkscape:pagecheckerboard="0"
     inkscape:deskcolor="#d1d1d1"
     inkscape:document-units="mm"
     showgrid="false"
     inkscape:zoom="0.46769781"
     inkscape:cx="641.43982"
     inkscape:cy="602.95343"
     inkscape:window-width="1366"
     inkscape:window-height="705"
     inkscape:window-x="-8"
     inkscape:window-y="-8"
     inkscape:window-maximized="1"
     inkscape:current-layer="g516" />
  <defs
     id="defs2">
    <rect
       x="455.42227"
       y="1011.3368"
       width="235.1946"
       height="149.66929"
       id="rect2707" />
    <rect
       x="513.15186"
       y="1002.7843"
       width="243.74713"
       height="145.39303"
       id="rect2285" />
    <rect
       x="316.44365"
       y="1000.6461"
       width="149.66929"
       height="91.939708"
       id="rect2229" />
    <rect
       x="320.71991"
       y="1009.1987"
       width="138.97863"
       height="96.215973"
       id="rect2119" />
    <rect
       x="166.77435"
       y="1015.6131"
       width="213.81328"
       height="145.39303"
       id="rect1787" />
    <rect
       x="233.05647"
       y="427.62655"
       width="376.31136"
       height="42.762655"
       id="rect1204" />
    <rect
       x="305.75298"
       y="705.5838"
       width="173.18875"
       height="34.210124"
       id="rect1122" />
    <rect
       x="324.99618"
       y="626.47289"
       width="207.39888"
       height="36.348257"
       id="rect1116" />
    <rect
       x="235.1946"
       y="322.85804"
       width="297.20045"
       height="47.03892"
       id="rect767" />
    <rect
       x="196.70821"
       y="314.30551"
       width="419.07402"
       height="64.143982"
       id="rect609" />
    <rect
       x="102.63037"
       y="267.26659"
       width="575.15771"
       height="68.420248"
       id="rect441" />
    <rect
       x="151.80742"
       y="470.3892"
       width="224.50394"
       height="85.525309"
       id="rect1897" />
    <rect
       x="42.762655"
       y="457.5604"
       width="207.39888"
       height="59.867717"
       id="rect1891" />
    <rect
       x="134.70236"
       y="515.28999"
       width="106.90664"
       height="44.900787"
       id="rect1885" />
    <rect
       x="91.939708"
       y="628.61102"
       width="111.1829"
       height="79.110911"
       id="rect1879" />
    <rect
       x="94.07784"
       y="641.43982"
       width="81.249042"
       height="62.005845"
       id="rect1867" />
    <rect
       x="10.690664"
       y="17.105062"
       width="472.52734"
       height="136.8405"
       id="rect813" />
    <rect
       x="27.795726"
       y="23.51946"
       width="354.93003"
       height="124.0117"
       id="rect755" />
    <rect
       x="305.75299"
       y="705.5838"
       width="173.18875"
       height="34.210125"
       id="rect1122-4" />
    <rect
       x="324.99619"
       y="626.4729"
       width="207.39888"
       height="36.348255"
       id="rect1116-8" />
    <rect
       x="233.05647"
       y="427.62656"
       width="376.31137"
       height="42.762653"
       id="rect1204-8" />
    <rect
       x="233.05647"
       y="427.62656"
       width="376.31137"
       height="42.762653"
       id="rect1204-1" />
  </defs>
  <g
     inkscape:label="Layer 1"
     inkscape:groupmode="layer"
     id="g516">
    <rect
       style="fill:#ececec;stroke-width:0.264583"
       id="rect61"
       width="208.18286"
       height="312.27432"
       x="0.56571412"
       y="-1.8256051e-07"
       ry="0" />
    <rect
       style="fill:#ececec;stroke-width:0.264583"
       id="rect110"
       width="20.365713"
       height="7.9200001"
       x="12.445714"
       y="9.6171427"
       ry="3.96" />
    <rect
       style="fill:#b3b3b3;stroke:#00ffff;stroke-width:0.250625"
       id="rect376"
       width="203.10538"
       height="44.705387"
       x="3.953021"
       y="1.6901641"
       ry="2.8927007" />
    <ellipse
       style="fill:#cccccc;stroke:#00ffff;stroke-width:0.250625"
       id="path482"
       cx="163.9258"
       cy="26.409611"
       rx="43.132595"
       ry="18.408102" />
    <g
       inkscape:label="fish_br.svg"
       transform="matrix(0.15720434,0,0,0.16939584,131.71814,12.726527)"
       id="g514">
      <title
         id="title11126">black/red fish</title>
      <g
         inkscape:label="Ebene 1"
         id="layer1"
         transform="translate(-21.0625,-354.1234)">
        <path
           style="color:#000000;display:inline;overflow:visible;visibility:visible;fill:#53676c;fill-opacity:1;fill-rule:nonzero;stroke:#000000;stroke-width:0.927072;stroke-linecap:round;stroke-linejoin:miter;stroke-miterlimit:4;stroke-dasharray:none;stroke-dashoffset:0;stroke-opacity:1;marker:none;enable-background:accumulate"
           d="m 332.9751,496.18859 c 0.12167,0.4083 0.0573,4.3593 -1.38523,5.97605 -2.63125,2.94688 -3.85581,6.15749 -4.75221,7.81253 -0.91717,1.69334 -5.83292,8.85745 -8.37042,10.01723 -2.24585,1.38631 2.88175,-7.12403 2.47845,-9.06034 0.44767,-4.42336 -3.91163,-8.78301 -4.12526,-9.32659 2.30274,-2.79407 17.27724,-9.5166 16.15467,-5.41888 z"
           id="path11743-4-2"
           inkscape:connector-curvature="0"
           sodipodi:nodetypes="csscccc" />
        <path
           style="color:#000000;display:inline;overflow:visible;visibility:visible;fill:#000000;fill-opacity:1;stroke:#000000;stroke-width:1.68576;stroke-linecap:round;stroke-linejoin:miter;stroke-miterlimit:4;stroke-dasharray:none;stroke-dashoffset:0;stroke-opacity:1;marker:none;enable-background:accumulate"
           d="m 28.371931,496.04938 c -0.521742,-2.85419 5.596022,-8.10346 4.969073,-11.52842 -0.62695,-3.42424 0.09662,-5.91629 1.962078,-8.61733 1.86546,-2.70103 1.3269,-18.52971 -2.362868,-22.57374 -3.689409,-4.04404 -6.30134,-18.31357 -7.973562,-27.44585 -1.671506,-9.13227 1.535882,-17.38817 -0.125246,-20.03338 -1.663992,-2.64486 -2.813399,-8.92365 -2.813399,-8.92365 0,0 4.92792,-2.08196 17.798628,-2.66811 12.870349,-0.58616 34.993566,10.70143 46.312646,14.52861 11.318364,3.82683 26.520449,-0.13956 26.520449,-0.13956 0,0 49.80345,-17.13661 74.90146,-31.73751 37.66096,-21.90815 69.18233,-25.6999 111.42231,-18.87038 42.38885,6.85421 34.64396,3.33228 42.3087,8.77264 7.66509,5.44071 41.20508,14.59446 66.48953,47.4098 0,0 8.10238,5.59531 9.30046,8.91506 1.19736,3.32011 3.7939,4.61516 3.7463,7.57313 -0.0501,2.95833 -3.27215,10.55937 -7.26824,11.29081 -3.99465,0.73144 -16.13428,1.10038 -17.42897,3.69729 -1.29398,2.59618 4.61695,2.97514 4.61695,2.97514 0,0 18.63349,-6.42945 17.77716,2.39364 -26.15044,29.79333 -47.93692,40.89484 -66.12846,44.08147 -8.87534,-0.14672 -38.13977,4.68458 -56.67593,-0.24334 -18.53579,-4.92863 -31.27374,0.3006 -65.67829,-12.18113 -9.29223,-2.428 -27.25976,-10.34717 -34.9932,-10.70108 -7.73345,-0.36071 -34.92952,-0.68528 -46.61002,-3.26572 -11.68122,-2.58115 -20.71724,-6.82666 -31.87493,-6.55398 -11.1584,0.27197 -45.083435,14.74225 -51.772682,20.09566 -6.690678,5.35805 -32.215237,14.16003 -36.419947,13.74993 z"
           id="path1611-3"
           inkscape:connector-curvature="0"
           sodipodi:nodetypes="cssssscsscsszcssscccczcssssc" />
        <path
           style="color:#000000;display:inline;overflow:visible;visibility:visible;fill:#1b2123;fill-opacity:1;stroke:none;stroke-width:9.81841;marker:none;enable-background:accumulate"
           d="m 418.52288,449.89956 c -26.15008,29.79332 -47.93727,40.89483 -66.12846,44.08147 -8.87498,-0.1503 -38.1394,4.68422 -56.67556,-0.24334 -18.53616,-4.92828 -31.27339,0.30775 -65.67793,-12.18114 -9.29331,-2.42763 -27.25977,-10.34716 -34.99357,-10.70107 -7.73345,-0.35427 -34.92987,-0.68457 -46.61038,-3.26536 -11.68086,-2.58116 -21.90629,-4.65069 -33.06434,-4.37801 112.74456,-33.26588 233.03643,83.16318 303.15024,-13.31255 z"
           id="path1611-3-03"
           inkscape:connector-curvature="0"
           sodipodi:nodetypes="cczcsscc" />
        <path
           style="color:#000000;display:inline;overflow:visible;visibility:visible;fill:#22292b;fill-opacity:1;stroke:none;stroke-width:9.81841;marker:none;enable-background:accumulate"
           d="m 112.82401,410.49536 c 0,0 49.80309,-17.13697 74.9011,-31.73715 37.66096,-21.90815 69.18233,-25.70027 111.42231,-18.87003 42.3885,6.8535 38.89519,6.30671 38.89519,6.30671 15.32983,10.88036 44.61967,17.06003 69.90304,49.87466 -126.90317,-80.52217 -166.19807,-20.11963 -295.12164,-5.57419 z"
           id="path1611-3-0"
           inkscape:connector-curvature="0"
           sodipodi:nodetypes="cssccc" />
        <path
           style="color:#000000;display:inline;overflow:visible;visibility:visible;fill:#4e6065;fill-opacity:1;stroke:#000000;stroke-width:1.68576;stroke-linecap:round;stroke-linejoin:miter;stroke-miterlimit:4;stroke-dasharray:none;stroke-dashoffset:0;stroke-opacity:1;marker:none;enable-background:accumulate"
           d="m 297.8434,448.50861 c -1.18233,9.65473 -6.94618,7.17055 -3.93132,10.74831 3.01415,3.5774 10.71504,19.86484 7.34662,24.02052 -3.36878,4.15605 -12.61342,-1.23028 -18.73906,-2.46807 -6.12563,-1.23851 -12.09883,-4.86458 -18.37726,-3.71553 -6.27844,1.14976 -16.03766,-0.60334 -22.05916,-1.27072 -6.02115,-0.6681 -0.0537,-3.52945 2.58902,-5.19273 2.6445,-1.66471 23.29732,-4.85492 27.34064,-8.54469 4.04439,-3.69012 5.28255,-9.8154 8.39367,-12.15465 3.11149,-2.33925 14.42198,-4.99985 14.42198,-4.99985 z"
           id="path1613-3"
           inkscape:connector-curvature="0" />
        <path
           style="color:#000000;display:inline;overflow:visible;visibility:visible;fill:#800000;fill-opacity:1;stroke:none;stroke-width:9.81841;marker:none;enable-background:accumulate"
           d="m 311.59907,399.43695 c -6.11776,5.24891 -6.52678,17.66372 -8.75439,21.61042 -2.22689,3.94706 -3.45717,16.56048 -2.35607,25.7976 1.1011,9.23641 7.92526,30.40417 14.3157,36.31259 6.3908,5.90914 21.47194,12.38547 23.75536,11.96786 2.28271,-0.41975 12.58837,-0.33637 12.58837,-0.33637 0,0 -23.0071,-12.89576 -28.61744,-17.7675 -5.61177,-4.87245 -11.01384,-8.60266 -14.13999,-19.23861 -3.12688,-10.63595 -6.12346,-27.14744 -0.50564,-31.7622 5.65762,-4.64745 5.59604,-25.32916 3.7141,-26.58379 z"
           id="path1617-4"
           inkscape:connector-curvature="0"
           sodipodi:nodetypes="csssccsssc" />
        <path
           style="color:#000000;display:inline;overflow:visible;visibility:visible;fill:#ff0000;fill-opacity:1;stroke:none;stroke-width:9.81841;marker:none;enable-background:accumulate"
           d="m 311.85779,405.8299 c -2.90286,3.48079 -5.23423,6.85708 -3.25641,11.21459 1.97711,4.3568 -4.55898,7.323 -4.18932,12.56439 0.3693,5.24175 -2.70999,18.03731 0.15029,24.00192 2.86171,5.96568 8.51284,16.88576 11.42286,19.89168 2.90966,3.00735 18.64995,14.87358 23.06364,16.4252 4.41298,1.55163 11.1491,4.1403 13.64187,4.86351 l 18.37727,-5.67689 c -3.85653,-2.30418 -26.75735,10.66565 -32.66184,-15.5857 -7.17055,-6.94618 0.5722,-41.98877 0.66918,-47.90543 0.0966,-5.91665 -0.53749,-10.48279 -1.4704,-14.4778 -1.67508,-7.17162 -23.70812,-17.41144 -26.11858,-10.55722 10e-4,0 0.3149,1.71266 0.37144,5.24175 z"
           id="path1615-8"
           inkscape:connector-curvature="0"
           sodipodi:nodetypes="cssssscccsscc" />
        <path
           style="color:#000000;display:inline;overflow:visible;visibility:visible;fill:#53676c;stroke:#000000;stroke-width:1.26089;stroke-linecap:round;stroke-linejoin:miter;stroke-miterlimit:4;stroke-dasharray:none;stroke-dashoffset:0;stroke-opacity:1;marker:none;enable-background:accumulate"
           d="m 407.51012,439.53056 c -5.66079,0.89462 -12.56332,0.5561 -15.54383,4.12169 -2.98123,3.5656 -10.62378,0.6019 -10.62378,0.6019 8.60158,6.81271 16.87609,7.34161 30.76273,5.96532 5.76672,-0.57792 4.68602,-1.62928 4.68602,-1.62928 -7.55166,-3.8397 -27.01643,-1.29791 -18.63886,-4.58903 2.65416,-1.13259 16.02192,-3.3899 16.02192,-3.3899 0,0 -4.25195,-0.99589 -6.6642,-1.0807 z"
           id="path1619-6"
           inkscape:connector-curvature="0"
           sodipodi:nodetypes="cscccccc" />
        <path
           style="color:#000000;display:inline;overflow:visible;visibility:visible;fill:#3a484b;fill-opacity:1;stroke:#000000;stroke-width:1.68576;stroke-linecap:round;stroke-linejoin:miter;stroke-miterlimit:4;stroke-dasharray:none;stroke-dashoffset:0;stroke-opacity:1;marker:none;enable-background:accumulate"
           d="m 117.79957,408.36094 c -5.35412,-6.68781 -0.72972,-7.99859 -2.13642,-12.4606 -1.4067,-4.46128 -2.13814,-8.45737 3.3609,-10.64346 5.49833,-2.18609 9.23712,-1.10038 21.48017,-5.11185 12.24411,-4.01112 21.48088,-5.11186 28.95703,-2.94151 7.47615,2.17142 9.86371,2.32386 15.20996,2.52533 5.34553,0.2004 -7.75446,4.93579 -16.00249,8.21511 -19.28851,12.0986 -45.78069,17.63431 -50.86915,20.41698 z"
           id="path1621-7"
           inkscape:connector-curvature="0"
           sodipodi:nodetypes="cccccccc" />
        <path
           style="color:#000000;display:inline;overflow:visible;visibility:visible;fill:#3a484b;fill-opacity:1;stroke:#000000;stroke-width:1.68576;stroke-linecap:round;stroke-linejoin:miter;stroke-miterlimit:4;stroke-dasharray:none;stroke-dashoffset:0;stroke-opacity:1;marker:none;enable-background:accumulate"
           d="m 112.1255,482.81247 c -3.63824,-3.75847 -0.32317,-9.99706 2.16136,-15.76127 2.4849,-5.76385 -0.0309,-4.53995 4.64013,-4.80512 4.67098,-0.26481 21.05298,6.59114 30.96536,5.95631 14.63955,1.03284 36.11707,-3.0412 49.5687,3.31654 0,0 4.26018,3.93954 -6.48026,6.49493 -10.74008,2.55647 -43.33106,4.98231 -48.82939,7.16912 -5.49905,2.1843 -28.38874,1.38761 -32.0259,-2.37051 z"
           id="path1623-0"
           inkscape:connector-curvature="0"
           sodipodi:nodetypes="zssccssz" />
        <ellipse
           style="color:#000000;display:inline;overflow:visible;visibility:visible;fill:#ffffff;stroke:#000000;stroke-width:3;stroke-linecap:round;stroke-linejoin:miter;stroke-miterlimit:4;stroke-dasharray:none;stroke-dashoffset:0;stroke-opacity:1;marker:none;enable-background:accumulate"
           id="path1625-4"
           transform="matrix(0.47892358,-0.08766853,0.10180863,0.55616929,-59.196258,-137.195)"
           cx="665.02094"
           cy="1093.1515"
           rx="18.587542"
           ry="16.005939" />
        <circle
           style="color:#000000;display:inline;overflow:visible;visibility:visible;fill:#000000;stroke:#000000;stroke-width:3;stroke-linecap:round;stroke-linejoin:miter;stroke-miterlimit:4;stroke-dasharray:none;stroke-dashoffset:0;stroke-opacity:1;marker:none;enable-background:accumulate"
           id="path1627-7"
           transform="matrix(0.55273621,-0.10118018,0.10118018,0.55273621,-106.16913,-124.71757)"
           cx="667.60254"
           cy="1096.2494"
           r="4.6468854" />
        <path
           style="color:#000000;display:inline;overflow:visible;visibility:visible;fill:#53676c;fill-opacity:0.734007;stroke:#000000;stroke-width:1.68576;stroke-linecap:round;stroke-linejoin:miter;stroke-miterlimit:4;stroke-dasharray:none;stroke-dashoffset:0;stroke-opacity:1;marker:none;enable-background:accumulate"
           d="m 30.616351,493.98317 c -0.488462,-2.68207 5.257856,-7.61392 4.668839,-10.83097 -0.589375,-3.21741 0.08946,-5.55917 1.842916,-8.09702 1.752737,-2.5375 1.247099,-17.40965 -2.219372,-21.20856 -3.467186,-3.79963 -5.920947,-17.20603 -7.491183,-25.78686 -1.571309,-8.57976 1.442842,-16.33718 -0.121668,-18.82172 -1.563795,-2.48489 -2.644137,-8.38437 -2.644137,-8.38437 0,0 4.630549,-1.95564 16.72258,-2.50636 12.092389,-0.55109 31.497753,14.19367 42.132985,17.78932 -7.444663,16.26525 -9.295809,32.58919 9.61,44.92491 -6.282732,5.02991 -58.550679,33.30703 -62.50096,32.92163 z"
           id="path1611-37-5"
           inkscape:connector-curvature="0"
           sodipodi:nodetypes="cssssscsccc" />
        <path
           style="color:#000000;display:inline;overflow:visible;visibility:visible;fill:#53676c;fill-opacity:1;fill-rule:nonzero;stroke:#000000;stroke-width:1.13777;stroke-linecap:round;stroke-linejoin:miter;stroke-miterlimit:4;stroke-dasharray:none;stroke-dashoffset:0;stroke-opacity:1;marker:none;enable-background:accumulate"
           d="m 328.44296,493.91124 c 0.20039,0.4831 0.61442,5.31476 -0.94651,7.46864 -2.84489,3.92595 -3.94026,7.99861 -4.82844,10.13103 -0.90893,2.18144 -6.01792,11.54094 -8.97124,13.27329 -2.56934,1.97209 2.63018,-9.05677 1.8966,-11.37097 0,-5.45646 -5.87014,-10.23588 -6.19828,-10.8732 2.46306,-3.698 19.90778,-13.77177 19.04787,-8.62879 z"
           id="path11743-4"
           inkscape:connector-curvature="0"
           sodipodi:nodetypes="csscccc" />
      </g>
    </g>
    <text
       xml:space="preserve"
       transform="scale(0.26458333)"
       id="text753"
       style="font-style:normal;font-variant:normal;font-weight:bold;font-stretch:normal;font-size:96px;font-family:sans-serif;-inkscape-font-specification:'sans-serif Bold';white-space:pre;shape-inside:url(#rect755);display:inline;fill:#000000;stroke:#00ffff" />
    <text
       xml:space="preserve"
       transform="matrix(0.25535469,0,0,0.24598366,2.8610566,7.4755673)"
       id="text811"
       style="font-style:normal;font-variant:normal;font-weight:bold;font-stretch:normal;font-size:96px;font-family:sans-serif;-inkscape-font-specification:'sans-serif Bold';white-space:pre;shape-inside:url(#rect813);display:inline;fill:#000000;stroke:#00ffff"><tspan
         x="10.691406"
         y="104.68918"
         id="tspan2810">HYONEA</tspan></text>
    <text
       xml:space="preserve"
       transform="scale(0.26458333)"
       id="text1865"
       style="font-style:normal;font-variant:normal;font-weight:bold;font-stretch:normal;font-size:26.6667px;font-family:sans-serif;-inkscape-font-specification:'sans-serif Bold';white-space:pre;shape-inside:url(#rect1867);display:inline;fill:#000000;fill-opacity:1;stroke:#00ffff" />
    <path
       style="fill:#000000;fill-opacity:1;stroke:#00ffff;stroke-width:0.264583"
       d="M 100.13143,295.86856 Z"
       id="path2071" />
    <rect
       style="fill:#333333;stroke:#1a1a1a;stroke-width:0.164409"
       id="rect333"
       width="185.08875"
       height="68.551598"
       x="14.658483"
       y="60.481339"
       ry="10.619492" />
    <text
       xml:space="preserve"
       transform="scale(0.26458333)"
       id="text439"
       style="font-style:normal;font-variant:normal;font-weight:bold;font-stretch:normal;font-size:37.3333px;font-family:sans-serif;-inkscape-font-specification:'sans-serif Bold';white-space:pre;shape-inside:url(#rect441);display:inline;fill:#ffffff;stroke:#1a1a1a" />
    <text
       xml:space="preserve"
       style="font-style:normal;font-variant:normal;font-weight:bold;font-stretch:normal;font-size:9.87777px;font-family:sans-serif;-inkscape-font-specification:'sans-serif Bold';fill:#ffffff;stroke:#1a1a1a;stroke-width:0.264583"
       x="89.382851"
       y="75.80571"
       id="text447"><tspan
         sodipodi:role="line"
         id="tspan445"
         style="stroke-width:0.264583"
         x="89.382851"
         y="75.80571">SIGN IN</tspan></text>
    <rect
       style="fill:#ffffff;stroke:#1a1a1a;stroke-width:0.264583"
       id="rect551"
       width="157.83429"
       height="13.577143"
       x="32.245716"
       y="82.028564"
       ry="5.091424" />
    <text
       xml:space="preserve"
       transform="scale(0.26458333)"
       id="text607"
       style="font-style:normal;font-variant:normal;font-weight:normal;font-stretch:normal;font-size:21.3333px;font-family:sans-serif;-inkscape-font-specification:sans-serif;white-space:pre;shape-inside:url(#rect609);display:inline;fill:#ffffff;stroke:#1a1a1a" />
    <text
       xml:space="preserve"
       style="font-style:normal;font-variant:normal;font-weight:normal;font-stretch:normal;font-size:5.64444px;font-family:sans-serif;-inkscape-font-specification:sans-serif;white-space:pre;inline-size:48.3332;display:inline;fill:#000000;stroke:#1a1a1a;stroke-width:0.264583"
       x="69.582855"
       y="91.645714"
       id="text615" />
    <text
       xml:space="preserve"
       transform="scale(0.26458333)"
       id="text765"
       style="font-style:normal;font-variant:normal;font-weight:normal;font-stretch:normal;font-size:26.6667px;font-family:sans-serif;-inkscape-font-specification:sans-serif;white-space:pre;shape-inside:url(#rect767);display:inline;fill:#000000;stroke:#1a1a1a" />
    <text
       xml:space="preserve"
       style="font-style:normal;font-variant:normal;font-weight:normal;font-stretch:normal;font-size:7.05556px;font-family:sans-serif;-inkscape-font-specification:sans-serif;fill:#000000;stroke:#1a1a1a;stroke-width:0.264583"
       x="95.040001"
       y="91.079994"
       id="text773"><tspan
         sodipodi:role="line"
         id="tspan771"
         style="stroke-width:0.264583"
         x="95.040001"
         y="91.079994">Email</tspan></text>
    <rect
       style="fill:#ffffff;stroke:#1a1a1a;stroke-width:0.264583"
       id="rect551-7"
       width="157.83429"
       height="13.577143"
       x="33.094284"
       y="102.39429"
       ry="5.091424" />
    <rect
       style="fill:#333333;stroke:#1a1a1a;stroke-width:0.212816"
       id="rect333-6"
       width="185.04033"
       height="114.89176"
       x="13.834116"
       y="141.11983"
       ry="21.590675" />
    <text
       xml:space="preserve"
       transform="matrix(0.26458333,0,0,0.26458333,-0.10510534,132.43634)"
       id="text1202-4"
       style="font-style:normal;font-variant:normal;font-weight:normal;font-stretch:normal;font-size:26.6667px;font-family:sans-serif;-inkscape-font-specification:sans-serif;white-space:pre;shape-inside:url(#rect1204-1);display:inline;fill:#000080;stroke:#1a1a1a"><tspan
         x="233.05664"
         y="451.95579"
         id="tspan2812">*iaccount already exist</tspan></text>
    <text
       xml:space="preserve"
       style="font-style:normal;font-variant:normal;font-weight:bold;font-stretch:normal;font-size:9.87777px;font-family:sans-serif;-inkscape-font-specification:'sans-serif Bold';fill:#ffffff;stroke:#1a1a1a;stroke-width:0.264583"
       x="88.534279"
       y="156.42"
       id="text447-4"><tspan
         sodipodi:role="line"
         id="tspan445-8"
         style="stroke-width:0.264583"
         x="88.534279"
         y="156.42">SIGN UP</tspan></text>
    <rect
       style="fill:#ffffff;stroke:#1a1a1a;stroke-width:0.264583"
       id="rect551-9"
       width="157.83429"
       height="13.577143"
       x="31.397146"
       y="162.64285"
       ry="5.091424" />
    <rect
       style="fill:#ffffff;stroke:#1a1a1a;stroke-width:0.264583"
       id="rect551-7-1"
       width="157.83429"
       height="13.577143"
       x="29.982859"
       y="203.3743"
       ry="5.091424" />
    <text
       xml:space="preserve"
       style="font-style:normal;font-variant:normal;font-weight:normal;font-stretch:normal;font-size:7.05556px;font-family:sans-serif;-inkscape-font-specification:sans-serif;fill:#000000;stroke:#1a1a1a;stroke-width:0.264583"
       x="90.797134"
       y="112.57715"
       id="text773-0"><tspan
         sodipodi:role="line"
         id="tspan771-6"
         style="stroke-width:0.264583"
         x="90.797134"
         y="112.57715">Password</tspan></text>
    <text
       xml:space="preserve"
       transform="matrix(0.26458333,0,0,0.26458333,13.577143,0)"
       id="text1114"
       style="font-style:normal;font-variant:normal;font-weight:normal;font-stretch:normal;font-size:26.6667px;font-family:sans-serif;-inkscape-font-specification:sans-serif;white-space:pre;shape-inside:url(#rect1116);display:inline;fill:#000000;stroke:#1a1a1a"><tspan
         x="324.99609"
         y="650.8015"
         id="tspan2814">Name</tspan></text>
    <rect
       style="fill:#ffffff;stroke:#1a1a1a;stroke-width:0.264583"
       id="rect551-9-6"
       width="157.83429"
       height="13.577143"
       x="31.397144"
       y="183.29143"
       ry="5.091424" />
    <text
       xml:space="preserve"
       transform="matrix(0.26458333,0,0,0.26458333,13.577138,20.648576)"
       id="text1114-3"
       style="font-style:normal;font-variant:normal;font-weight:normal;font-stretch:normal;font-size:26.6667px;font-family:sans-serif;-inkscape-font-specification:sans-serif;white-space:pre;shape-inside:url(#rect1116-8);display:inline;fill:#000000;stroke:#1a1a1a"><tspan
         x="324.99609"
         y="650.8015"
         id="tspan2816">Email</tspan></text>
    <text
       xml:space="preserve"
       transform="matrix(0.26458333,0,0,0.26458333,13.577143,19.8)"
       id="text1120"
       style="font-style:normal;font-variant:normal;font-weight:normal;font-stretch:normal;font-size:26.6667px;font-family:sans-serif;-inkscape-font-specification:sans-serif;white-space:pre;shape-inside:url(#rect1122);display:inline;fill:#000000;stroke:#1a1a1a"><tspan
         x="305.75391"
         y="729.91282"
         id="tspan2818">Password</tspan></text>
    <rect
       style="fill:#ffffff;stroke:#1a1a1a;stroke-width:0.264583"
       id="rect551-7-1-3"
       width="157.83429"
       height="13.577143"
       x="30.831427"
       y="222.32571"
       ry="5.091424" />
    <text
       xml:space="preserve"
       transform="matrix(0.26458333,0,0,0.26458333,9.3342824,38.75142)"
       id="text1120-8"
       style="font-style:normal;font-variant:normal;font-weight:normal;font-stretch:normal;font-size:26.6667px;font-family:sans-serif;-inkscape-font-specification:sans-serif;white-space:pre;shape-inside:url(#rect1122-4);display:inline;fill:#000000;stroke:#1a1a1a"><tspan
         x="305.75391"
         y="729.91282"
         id="tspan2820">Password</tspan></text>
    <text
       xml:space="preserve"
       transform="matrix(0.26458333,0,0,0.26458333,-2.8285714,4.5257143)"
       id="text1202"
       style="font-style:normal;font-variant:normal;font-weight:normal;font-stretch:normal;font-size:26.6667px;font-family:sans-serif;-inkscape-font-specification:sans-serif;white-space:pre;shape-inside:url(#rect1204);display:inline;fill:#ff0000;stroke:#1a1a1a"><tspan
         x="233.05664"
         y="451.95579"
         id="tspan2822">*invaild name or password</tspan></text>
    <text
       xml:space="preserve"
       transform="matrix(0.26458333,0,0,0.26458333,0.46060831,123.95063)"
       id="text1202-0"
       style="font-style:normal;font-variant:normal;font-weight:normal;font-stretch:normal;font-size:26.6667px;font-family:sans-serif;-inkscape-font-specification:sans-serif;white-space:pre;shape-inside:url(#rect1204-8);display:inline;fill:#ff0000;stroke:#1a1a1a"><tspan
         x="233.05664"
         y="451.95579"
         id="tspan2824">*invaild name or password</tspan></text>
    <rect
       style="fill:#ffccaa;stroke:#ffffff;stroke-width:0.264583"
       id="rect1677"
       width="28.851429"
       height="27.154285"
       x="56.571426"
       y="261.92569"
       ry="10.74857" />
    <text
       xml:space="preserve"
       transform="matrix(0.26458333,0,0,0.26458333,16.405714,-6.7885715)"
       id="text1785"
       style="font-style:normal;font-variant:normal;font-weight:bold;font-stretch:normal;font-size:96px;font-family:sans-serif;-inkscape-font-specification:'sans-serif Bold';white-space:pre;shape-inside:url(#rect1787);display:inline;fill:#ff0000;stroke:#ffffff"><tspan
         x="166.77344"
         y="1103.197"
         id="tspan2826">G</tspan></text>
    <text
       xml:space="preserve"
       transform="matrix(0.26458333,0,0,0.26458333,26.588572,5.6571427)"
       id="text2227"
       style="font-style:normal;font-variant:normal;font-weight:bold;font-stretch:normal;font-size:26.6667px;font-family:sans-serif;-inkscape-font-specification:'sans-serif Bold';white-space:pre;shape-inside:url(#rect2229);fill:#000000;stroke:#ffffff"><tspan
         x="316.44336"
         y="1024.9753"
         id="tspan2828">or</tspan></text>
    <text
       xml:space="preserve"
       transform="scale(0.26458333)"
       id="text2283"
       style="font-style:normal;font-variant:normal;font-weight:bold;font-stretch:normal;font-size:96px;font-family:sans-serif;-inkscape-font-specification:'sans-serif Bold';white-space:pre;shape-inside:url(#rect2285);fill:#000000;stroke:#ffffff" />
    <ellipse
       style="fill:#0000ff;stroke:#ffffff;stroke-width:0.264583"
       id="path2495"
       cx="145.95428"
       cy="276.91711"
       rx="15.274285"
       ry="14.991428" />
    <text
       xml:space="preserve"
       transform="matrix(0.26458333,0,0,0.26458333,19.234286,-3.96)"
       id="text2705"
       style="font-style:normal;font-variant:normal;font-weight:bold;font-stretch:normal;font-size:96px;font-family:sans-serif;-inkscape-font-specification:'sans-serif Bold';white-space:pre;shape-inside:url(#rect2707);fill:#ffffff;stroke:#ffffff"><tspan
         x="455.42188"
         y="1098.9196"
         id="tspan2830">f</tspan></text>
  </g>
</svg>
