<?xml version="1.0" encoding="UTF-8" standalone="no"?>
<!-- Created with Inkscape (http://www.inkscape.org/) -->

<svg
   width="300mm"
   height="297mm"
   viewBox="0 0 300 297"
   version="1.1"
   id="svg5"
   sodipodi:docname="webappfiles2.svg"
   inkscape:version="1.2 (dc2aedaf03, 2022-05-15)"
   xmlns:inkscape="http://www.inkscape.org/namespaces/inkscape"
   xmlns:sodipodi="http://sodipodi.sourceforge.net/DTD/sodipodi-0.dtd"
   xmlns:xlink="http://www.w3.org/1999/xlink"
   xmlns="http://www.w3.org/2000/svg"
   xmlns:svg="http://www.w3.org/2000/svg">
  <sodipodi:namedview
     id="namedview7"
     pagecolor="#ffffff"
     bordercolor="#000000"
     borderopacity="0.25"
     inkscape:showpageshadow="2"
     inkscape:pageopacity="0.0"
     inkscape:pagecheckerboard="0"
     inkscape:deskcolor="#d1d1d1"
     inkscape:document-units="mm"
     showgrid="false"
     inkscape:zoom="0.46769781"
     inkscape:cx="563.39798"
     inkscape:cy="609.36783"
     inkscape:window-width="1366"
     inkscape:window-height="705"
     inkscape:window-x="-8"
     inkscape:window-y="-8"
     inkscape:window-maximized="1"
     inkscape:current-layer="g516" />
  <defs
     id="defs2">
    <rect
       x="-342.10123"
       y="23.519461"
       width="310.02924"
       height="113.32104"
       id="rect3832" />
    <rect
       x="-436.17908"
       y="487.49426"
       width="519.56628"
       height="451.146"
       id="rect2544" />
    <rect
       x="-359.2063"
       y="220.22768"
       width="314.30551"
       height="72.69651"
       id="rect860" />
    <rect
       x="-258.71405"
       y="68.42025"
       width="252.29967"
       height="179.60315"
       id="rect854" />
    <rect
       x="-372.0351"
       y="87.663445"
       width="115.45917"
       height="91.939705"
       id="rect798" />
    <rect
       x="59.867718"
       y="230.91833"
       width="399.83081"
       height="70.55838"
       id="rect1607" />
    <rect
       x="151.80742"
       y="470.38919"
       width="224.50394"
       height="85.525307"
       id="rect1897" />
    <rect
       x="42.762653"
       y="457.56039"
       width="207.39888"
       height="59.867718"
       id="rect1891" />
    <rect
       x="134.70236"
       y="515.28998"
       width="106.90664"
       height="44.900787"
       id="rect1885" />
    <rect
       x="91.939705"
       y="628.61102"
       width="111.1829"
       height="79.110909"
       id="rect1879" />
    <rect
       x="94.077843"
       y="641.43982"
       width="81.249039"
       height="62.005844"
       id="rect1867" />
    <rect
       x="10.690664"
       y="17.105062"
       width="472.52734"
       height="136.8405"
       id="rect813" />
    <rect
       x="27.795727"
       y="23.519461"
       width="354.93002"
       height="124.0117"
       id="rect755" />
    <rect
       x="134.70236"
       y="515.28998"
       width="106.90664"
       height="44.900787"
       id="rect1885-1" />
    <rect
       x="134.70236"
       y="515.28998"
       width="106.90664"
       height="44.900787"
       id="rect1885-3" />
    <clipPath
       clipPathUnits="userSpaceOnUse"
       id="clipPath2456">
      <use
         x="0"
         y="0"
         xlink:href="#g2452"
         id="use2458" />
    </clipPath>
    <rect
       x="134.70236"
       y="515.28998"
       width="106.90664"
       height="44.900787"
       id="rect1885-12" />
    <rect
       x="134.70236"
       y="515.28998"
       width="106.90664"
       height="44.900787"
       id="rect1885-2" />
  </defs>
  <g
     inkscape:label="Layer 1"
     inkscape:groupmode="layer"
     id="g516">
    <g
       id="g2454"
       clip-path="url(#clipPath2456)"
       transform="matrix(1.5163044,0,0,0.95108696,0.83934,-4.5257143)">
      <g
         inkscape:label="Clip"
         id="g2452">
        <rect
           style="fill:#ececec;stroke-width:0.264583"
           id="rect61"
           width="208.18286"
           height="312.27432"
           x="0.56571412"
           y="-1.8256051e-07"
           ry="0" />
      </g>
    </g>
    <rect
       style="fill:#ececec;stroke-width:0.264583"
       id="rect110"
       width="20.365713"
       height="7.9200001"
       x="121.06285"
       y="5.0914283"
       ry="3.96" />
    <rect
       style="fill:#b3b3b3;stroke:#00ffff;stroke-width:0.250625"
       id="rect376"
       width="203.10538"
       height="44.705387"
       x="112.57016"
       y="-2.8355503"
       ry="2.8927007" />
    <ellipse
       style="fill:#cccccc;stroke:#00ffff;stroke-width:0.250625"
       id="path482"
       cx="272.54294"
       cy="21.883896"
       rx="43.132595"
       ry="18.408102" />
    <g
       inkscape:label="fish_br.svg"
       transform="matrix(0.15720434,0,0,0.16939584,240.33528,8.2008127)"
       id="g514">
      <title
         id="title11126">black/red fish</title>
      <g
         inkscape:label="Ebene 1"
         id="layer1"
         transform="translate(-21.0625,-354.1234)">
        <path
           style="color:#000000;display:inline;overflow:visible;visibility:visible;fill:#53676c;fill-opacity:1;fill-rule:nonzero;stroke:#000000;stroke-width:0.927072;stroke-linecap:round;stroke-linejoin:miter;stroke-miterlimit:4;stroke-dasharray:none;stroke-dashoffset:0;stroke-opacity:1;marker:none;enable-background:accumulate"
           d="m 332.9751,496.18859 c 0.12167,0.4083 0.0573,4.3593 -1.38523,5.97605 -2.63125,2.94688 -3.85581,6.15749 -4.75221,7.81253 -0.91717,1.69334 -5.83292,8.85745 -8.37042,10.01723 -2.24585,1.38631 2.88175,-7.12403 2.47845,-9.06034 0.44767,-4.42336 -3.91163,-8.78301 -4.12526,-9.32659 2.30274,-2.79407 17.27724,-9.5166 16.15467,-5.41888 z"
           id="path11743-4-2"
           inkscape:connector-curvature="0"
           sodipodi:nodetypes="csscccc" />
        <path
           style="color:#000000;display:inline;overflow:visible;visibility:visible;fill:#000000;fill-opacity:1;stroke:#000000;stroke-width:1.68576;stroke-linecap:round;stroke-linejoin:miter;stroke-miterlimit:4;stroke-dasharray:none;stroke-dashoffset:0;stroke-opacity:1;marker:none;enable-background:accumulate"
           d="m 28.371931,496.04938 c -0.521742,-2.85419 5.596022,-8.10346 4.969073,-11.52842 -0.62695,-3.42424 0.09662,-5.91629 1.962078,-8.61733 1.86546,-2.70103 1.3269,-18.52971 -2.362868,-22.57374 -3.689409,-4.04404 -6.30134,-18.31357 -7.973562,-27.44585 -1.671506,-9.13227 1.535882,-17.38817 -0.125246,-20.03338 -1.663992,-2.64486 -2.813399,-8.92365 -2.813399,-8.92365 0,0 4.92792,-2.08196 17.798628,-2.66811 12.870349,-0.58616 34.993566,10.70143 46.312646,14.52861 11.318364,3.82683 26.520449,-0.13956 26.520449,-0.13956 0,0 49.80345,-17.13661 74.90146,-31.73751 37.66096,-21.90815 69.18233,-25.6999 111.42231,-18.87038 42.38885,6.85421 34.64396,3.33228 42.3087,8.77264 7.66509,5.44071 41.20508,14.59446 66.48953,47.4098 0,0 8.10238,5.59531 9.30046,8.91506 1.19736,3.32011 3.7939,4.61516 3.7463,7.57313 -0.0501,2.95833 -3.27215,10.55937 -7.26824,11.29081 -3.99465,0.73144 -16.13428,1.10038 -17.42897,3.69729 -1.29398,2.59618 4.61695,2.97514 4.61695,2.97514 0,0 18.63349,-6.42945 17.77716,2.39364 -26.15044,29.79333 -47.93692,40.89484 -66.12846,44.08147 -8.87534,-0.14672 -38.13977,4.68458 -56.67593,-0.24334 -18.53579,-4.92863 -31.27374,0.3006 -65.67829,-12.18113 -9.29223,-2.428 -27.25976,-10.34717 -34.9932,-10.70108 -7.73345,-0.36071 -34.92952,-0.68528 -46.61002,-3.26572 -11.68122,-2.58115 -20.71724,-6.82666 -31.87493,-6.55398 -11.1584,0.27197 -45.083435,14.74225 -51.772682,20.09566 -6.690678,5.35805 -32.215237,14.16003 -36.419947,13.74993 z"
           id="path1611-3"
           inkscape:connector-curvature="0"
           sodipodi:nodetypes="cssssscsscsszcssscccczcssssc" />
        <path
           style="color:#000000;display:inline;overflow:visible;visibility:visible;fill:#1b2123;fill-opacity:1;stroke:none;stroke-width:9.81841;marker:none;enable-background:accumulate"
           d="m 418.52288,449.89956 c -26.15008,29.79332 -47.93727,40.89483 -66.12846,44.08147 -8.87498,-0.1503 -38.1394,4.68422 -56.67556,-0.24334 -18.53616,-4.92828 -31.27339,0.30775 -65.67793,-12.18114 -9.29331,-2.42763 -27.25977,-10.34716 -34.99357,-10.70107 -7.73345,-0.35427 -34.92987,-0.68457 -46.61038,-3.26536 -11.68086,-2.58116 -21.90629,-4.65069 -33.06434,-4.37801 112.74456,-33.26588 233.03643,83.16318 303.15024,-13.31255 z"
           id="path1611-3-03"
           inkscape:connector-curvature="0"
           sodipodi:nodetypes="cczcsscc" />
        <path
           style="color:#000000;display:inline;overflow:visible;visibility:visible;fill:#22292b;fill-opacity:1;stroke:none;stroke-width:9.81841;marker:none;enable-background:accumulate"
           d="m 112.82401,410.49536 c 0,0 49.80309,-17.13697 74.9011,-31.73715 37.66096,-21.90815 69.18233,-25.70027 111.42231,-18.87003 42.3885,6.8535 38.89519,6.30671 38.89519,6.30671 15.32983,10.88036 44.61967,17.06003 69.90304,49.87466 -126.90317,-80.52217 -166.19807,-20.11963 -295.12164,-5.57419 z"
           id="path1611-3-0"
           inkscape:connector-curvature="0"
           sodipodi:nodetypes="cssccc" />
        <path
           style="color:#000000;display:inline;overflow:visible;visibility:visible;fill:#4e6065;fill-opacity:1;stroke:#000000;stroke-width:1.68576;stroke-linecap:round;stroke-linejoin:miter;stroke-miterlimit:4;stroke-dasharray:none;stroke-dashoffset:0;stroke-opacity:1;marker:none;enable-background:accumulate"
           d="m 297.8434,448.50861 c -1.18233,9.65473 -6.94618,7.17055 -3.93132,10.74831 3.01415,3.5774 10.71504,19.86484 7.34662,24.02052 -3.36878,4.15605 -12.61342,-1.23028 -18.73906,-2.46807 -6.12563,-1.23851 -12.09883,-4.86458 -18.37726,-3.71553 -6.27844,1.14976 -16.03766,-0.60334 -22.05916,-1.27072 -6.02115,-0.6681 -0.0537,-3.52945 2.58902,-5.19273 2.6445,-1.66471 23.29732,-4.85492 27.34064,-8.54469 4.04439,-3.69012 5.28255,-9.8154 8.39367,-12.15465 3.11149,-2.33925 14.42198,-4.99985 14.42198,-4.99985 z"
           id="path1613-3"
           inkscape:connector-curvature="0" />
        <path
           style="color:#000000;display:inline;overflow:visible;visibility:visible;fill:#800000;fill-opacity:1;stroke:none;stroke-width:9.81841;marker:none;enable-background:accumulate"
           d="m 311.59907,399.43695 c -6.11776,5.24891 -6.52678,17.66372 -8.75439,21.61042 -2.22689,3.94706 -3.45717,16.56048 -2.35607,25.7976 1.1011,9.23641 7.92526,30.40417 14.3157,36.31259 6.3908,5.90914 21.47194,12.38547 23.75536,11.96786 2.28271,-0.41975 12.58837,-0.33637 12.58837,-0.33637 0,0 -23.0071,-12.89576 -28.61744,-17.7675 -5.61177,-4.87245 -11.01384,-8.60266 -14.13999,-19.23861 -3.12688,-10.63595 -6.12346,-27.14744 -0.50564,-31.7622 5.65762,-4.64745 5.59604,-25.32916 3.7141,-26.58379 z"
           id="path1617-4"
           inkscape:connector-curvature="0"
           sodipodi:nodetypes="csssccsssc" />
        <path
           style="color:#000000;display:inline;overflow:visible;visibility:visible;fill:#ff0000;fill-opacity:1;stroke:none;stroke-width:9.81841;marker:none;enable-background:accumulate"
           d="m 311.85779,405.8299 c -2.90286,3.48079 -5.23423,6.85708 -3.25641,11.21459 1.97711,4.3568 -4.55898,7.323 -4.18932,12.56439 0.3693,5.24175 -2.70999,18.03731 0.15029,24.00192 2.86171,5.96568 8.51284,16.88576 11.42286,19.89168 2.90966,3.00735 18.64995,14.87358 23.06364,16.4252 4.41298,1.55163 11.1491,4.1403 13.64187,4.86351 l 18.37727,-5.67689 c -3.85653,-2.30418 -26.75735,10.66565 -32.66184,-15.5857 -7.17055,-6.94618 0.5722,-41.98877 0.66918,-47.90543 0.0966,-5.91665 -0.53749,-10.48279 -1.4704,-14.4778 -1.67508,-7.17162 -23.70812,-17.41144 -26.11858,-10.55722 10e-4,0 0.3149,1.71266 0.37144,5.24175 z"
           id="path1615-8"
           inkscape:connector-curvature="0"
           sodipodi:nodetypes="cssssscccsscc" />
        <path
           style="color:#000000;display:inline;overflow:visible;visibility:visible;fill:#53676c;stroke:#000000;stroke-width:1.26089;stroke-linecap:round;stroke-linejoin:miter;stroke-miterlimit:4;stroke-dasharray:none;stroke-dashoffset:0;stroke-opacity:1;marker:none;enable-background:accumulate"
           d="m 407.51012,439.53056 c -5.66079,0.89462 -12.56332,0.5561 -15.54383,4.12169 -2.98123,3.5656 -10.62378,0.6019 -10.62378,0.6019 8.60158,6.81271 16.87609,7.34161 30.76273,5.96532 5.76672,-0.57792 4.68602,-1.62928 4.68602,-1.62928 -7.55166,-3.8397 -27.01643,-1.29791 -18.63886,-4.58903 2.65416,-1.13259 16.02192,-3.3899 16.02192,-3.3899 0,0 -4.25195,-0.99589 -6.6642,-1.0807 z"
           id="path1619-6"
           inkscape:connector-curvature="0"
           sodipodi:nodetypes="cscccccc" />
        <path
           style="color:#000000;display:inline;overflow:visible;visibility:visible;fill:#3a484b;fill-opacity:1;stroke:#000000;stroke-width:1.68576;stroke-linecap:round;stroke-linejoin:miter;stroke-miterlimit:4;stroke-dasharray:none;stroke-dashoffset:0;stroke-opacity:1;marker:none;enable-background:accumulate"
           d="m 117.79957,408.36094 c -5.35412,-6.68781 -0.72972,-7.99859 -2.13642,-12.4606 -1.4067,-4.46128 -2.13814,-8.45737 3.3609,-10.64346 5.49833,-2.18609 9.23712,-1.10038 21.48017,-5.11185 12.24411,-4.01112 21.48088,-5.11186 28.95703,-2.94151 7.47615,2.17142 9.86371,2.32386 15.20996,2.52533 5.34553,0.2004 -7.75446,4.93579 -16.00249,8.21511 -19.28851,12.0986 -45.78069,17.63431 -50.86915,20.41698 z"
           id="path1621-7"
           inkscape:connector-curvature="0"
           sodipodi:nodetypes="cccccccc" />
        <path
           style="color:#000000;display:inline;overflow:visible;visibility:visible;fill:#3a484b;fill-opacity:1;stroke:#000000;stroke-width:1.68576;stroke-linecap:round;stroke-linejoin:miter;stroke-miterlimit:4;stroke-dasharray:none;stroke-dashoffset:0;stroke-opacity:1;marker:none;enable-background:accumulate"
           d="m 112.1255,482.81247 c -3.63824,-3.75847 -0.32317,-9.99706 2.16136,-15.76127 2.4849,-5.76385 -0.0309,-4.53995 4.64013,-4.80512 4.67098,-0.26481 21.05298,6.59114 30.96536,5.95631 14.63955,1.03284 36.11707,-3.0412 49.5687,3.31654 0,0 4.26018,3.93954 -6.48026,6.49493 -10.74008,2.55647 -43.33106,4.98231 -48.82939,7.16912 -5.49905,2.1843 -28.38874,1.38761 -32.0259,-2.37051 z"
           id="path1623-0"
           inkscape:connector-curvature="0"
           sodipodi:nodetypes="zssccssz" />
        <ellipse
           style="color:#000000;display:inline;overflow:visible;visibility:visible;fill:#ffffff;stroke:#000000;stroke-width:3;stroke-linecap:round;stroke-linejoin:miter;stroke-miterlimit:4;stroke-dasharray:none;stroke-dashoffset:0;stroke-opacity:1;marker:none;enable-background:accumulate"
           id="path1625-4"
           transform="matrix(0.47892358,-0.08766853,0.10180863,0.55616929,-59.196258,-137.195)"
           cx="665.02094"
           cy="1093.1515"
           rx="18.587542"
           ry="16.005939" />
        <circle
           style="color:#000000;display:inline;overflow:visible;visibility:visible;fill:#000000;stroke:#000000;stroke-width:3;stroke-linecap:round;stroke-linejoin:miter;stroke-miterlimit:4;stroke-dasharray:none;stroke-dashoffset:0;stroke-opacity:1;marker:none;enable-background:accumulate"
           id="path1627-7"
           transform="matrix(0.55273621,-0.10118018,0.10118018,0.55273621,-106.16913,-124.71757)"
           cx="667.60254"
           cy="1096.2494"
           r="4.6468854" />
        <path
           style="color:#000000;display:inline;overflow:visible;visibility:visible;fill:#53676c;fill-opacity:0.734007;stroke:#000000;stroke-width:1.68576;stroke-linecap:round;stroke-linejoin:miter;stroke-miterlimit:4;stroke-dasharray:none;stroke-dashoffset:0;stroke-opacity:1;marker:none;enable-background:accumulate"
           d="m 30.616351,493.98317 c -0.488462,-2.68207 5.257856,-7.61392 4.668839,-10.83097 -0.589375,-3.21741 0.08946,-5.55917 1.842916,-8.09702 1.752737,-2.5375 1.247099,-17.40965 -2.219372,-21.20856 -3.467186,-3.79963 -5.920947,-17.20603 -7.491183,-25.78686 -1.571309,-8.57976 1.442842,-16.33718 -0.121668,-18.82172 -1.563795,-2.48489 -2.644137,-8.38437 -2.644137,-8.38437 0,0 4.630549,-1.95564 16.72258,-2.50636 12.092389,-0.55109 31.497753,14.19367 42.132985,17.78932 -7.444663,16.26525 -9.295809,32.58919 9.61,44.92491 -6.282732,5.02991 -58.550679,33.30703 -62.50096,32.92163 z"
           id="path1611-37-5"
           inkscape:connector-curvature="0"
           sodipodi:nodetypes="cssssscsccc" />
        <path
           style="color:#000000;display:inline;overflow:visible;visibility:visible;fill:#53676c;fill-opacity:1;fill-rule:nonzero;stroke:#000000;stroke-width:1.13777;stroke-linecap:round;stroke-linejoin:miter;stroke-miterlimit:4;stroke-dasharray:none;stroke-dashoffset:0;stroke-opacity:1;marker:none;enable-background:accumulate"
           d="m 328.44296,493.91124 c 0.20039,0.4831 0.61442,5.31476 -0.94651,7.46864 -2.84489,3.92595 -3.94026,7.99861 -4.82844,10.13103 -0.90893,2.18144 -6.01792,11.54094 -8.97124,13.27329 -2.56934,1.97209 2.63018,-9.05677 1.8966,-11.37097 0,-5.45646 -5.87014,-10.23588 -6.19828,-10.8732 2.46306,-3.698 19.90778,-13.77177 19.04787,-8.62879 z"
           id="path11743-4"
           inkscape:connector-curvature="0"
           sodipodi:nodetypes="csscccc" />
      </g>
    </g>
    <text
       xml:space="preserve"
       transform="matrix(0.26458333,0,0,0.26458333,108.61714,-4.5257143)"
       id="text753"
       style="font-style:normal;font-variant:normal;font-weight:bold;font-stretch:normal;font-size:96px;font-family:sans-serif;-inkscape-font-specification:'sans-serif Bold';white-space:pre;shape-inside:url(#rect755);display:inline;fill:#000000;stroke:#00ffff" />
    <text
       xml:space="preserve"
       transform="matrix(0.25535469,0,0,0.24598366,111.4782,2.949853)"
       id="text811"
       style="font-style:normal;font-variant:normal;font-weight:bold;font-stretch:normal;font-size:96px;font-family:sans-serif;-inkscape-font-specification:'sans-serif Bold';white-space:pre;shape-inside:url(#rect813);display:inline;fill:#000000;stroke:#00ffff"><tspan
         x="10.691406"
         y="104.68918"
         id="tspan1465">HYONEA</tspan></text>
    <text
       xml:space="preserve"
       transform="matrix(0.26458333,0,0,0.26458333,108.61714,-4.5257143)"
       id="text1865"
       style="font-style:normal;font-variant:normal;font-weight:bold;font-stretch:normal;font-size:26.6667px;font-family:sans-serif;-inkscape-font-specification:'sans-serif Bold';white-space:pre;shape-inside:url(#rect1867);display:inline;fill:#000000;fill-opacity:1;stroke:#00ffff" />
    <text
       xml:space="preserve"
       transform="matrix(0.26458333,0,0,0.26458333,89.379067,-81.940456)"
       id="text1883-6"
       style="font-style:normal;font-variant:normal;font-weight:bold;font-stretch:normal;font-size:26.6667px;font-family:sans-serif;-inkscape-font-specification:'sans-serif Bold';white-space:pre;shape-inside:url(#rect1885-1);display:inline;fill:#000000;fill-opacity:1;stroke:#00ffff"><tspan
         x="134.70312"
         y="539.6179"
         id="tspan1467">POST</tspan></text>
    <rect
       style="fill:#b3b3b3;fill-opacity:1;stroke:#00ffff;stroke-width:0.264583"
       id="rect919"
       width="211.57712"
       height="29.417133"
       x="110.31429"
       y="261.35995"
       ry="12.728562" />
    <rect
       style="fill:#ececec;fill-opacity:1;stroke:#00ffff;stroke-width:0.264583"
       id="rect1197-51"
       width="49.21714"
       height="21.497141"
       x="267.29999"
       y="266.45142"
       ry="10.74857" />
    <rect
       style="fill:#ececec;fill-opacity:1;stroke:#00ffff;stroke-width:0.264583"
       id="rect1197"
       width="49.21714"
       height="21.497141"
       x="114.27428"
       y="267.58286"
       ry="10.74857" />
    <rect
       style="fill:#ececec;fill-opacity:1;stroke:#00ffff;stroke-width:0.264583"
       id="rect1197-7"
       width="49.21714"
       height="21.497141"
       x="165.47144"
       y="266.45145"
       ry="10.74857" />
    <rect
       style="fill:#ececec;fill-opacity:1;stroke:#00ffff;stroke-width:0.264583"
       id="rect1197-5"
       width="49.21714"
       height="21.497141"
       x="216.38571"
       y="266.45142"
       ry="10.74857" />
    <text
       xml:space="preserve"
       transform="matrix(0.26458333,0,0,0.26458333,153.30857,106.92)"
       id="text1877"
       style="font-style:normal;font-variant:normal;font-weight:bold;font-stretch:normal;font-size:26.6667px;font-family:sans-serif;-inkscape-font-specification:'sans-serif Bold';white-space:pre;shape-inside:url(#rect1879);display:inline;fill:#000000;fill-opacity:1;stroke:#00ffff"><tspan
         x="91.939453"
         y="652.94017"
         id="tspan1469">HOME</tspan></text>
    <text
       xml:space="preserve"
       transform="matrix(0.26458333,0,0,0.26458333,91.079997,138.03429)"
       id="text1883"
       style="font-style:normal;font-variant:normal;font-weight:bold;font-stretch:normal;font-size:26.6667px;font-family:sans-serif;-inkscape-font-specification:'sans-serif Bold';white-space:pre;shape-inside:url(#rect1885);display:inline;fill:#000000;fill-opacity:1;stroke:#00ffff"><tspan
         x="134.70312"
         y="539.6179"
         id="tspan1471">POST</tspan></text>
    <text
       xml:space="preserve"
       transform="matrix(0.26458333,0,0,0.26458333,217.79999,152.17714)"
       id="text1889"
       style="font-style:normal;font-variant:normal;font-weight:bold;font-stretch:normal;font-size:26.6667px;font-family:sans-serif;-inkscape-font-specification:'sans-serif Bold';white-space:pre;shape-inside:url(#rect1891);display:inline;fill:#000000;fill-opacity:1;stroke:#00ffff"><tspan
         x="42.761719"
         y="481.88939"
         id="tspan1473">FILES</tspan></text>
    <text
       xml:space="preserve"
       transform="matrix(0.26458333,0,0,0.26458333,231.37714,145.38857)"
       id="text1895"
       style="font-style:normal;font-variant:normal;font-weight:bold;font-stretch:normal;font-size:26.6667px;font-family:sans-serif;-inkscape-font-specification:'sans-serif Bold';white-space:pre;shape-inside:url(#rect1897);display:inline;fill:#000000;fill-opacity:1;stroke:#00ffff"><tspan
         x="151.80664"
         y="494.71751"
         id="tspan1475">ACCOUNT </tspan><tspan
         x="151.80664"
         y="528.05089"
         id="tspan1477">SETTINGS</tspan></text>
    <path
       style="fill:#000000;fill-opacity:1;stroke:#00ffff;stroke-width:0.264583"
       d="M 208.74857,291.34285 Z"
       id="path2071" />
    <rect
       style="fill:#000000;fill-opacity:1;stroke:#00ffff;stroke-width:0.166827"
       id="rect2075"
       width="40.26347"
       height="1.794899"
       x="219.334"
       y="286.20255"
       ry="0.89744949" />
    <rect
       style="fill:#000000;fill-opacity:1;stroke:#00ffff;stroke-width:0.166827"
       id="rect2075-8"
       width="40.26347"
       height="1.794899"
       x="224.82254"
       y="285.91968"
       ry="0.89744949" />
    <rect
       style="fill:#f9f9f9;fill-opacity:1;stroke:#1a1a1a;stroke-width:1.27155"
       id="rect734"
       width="196.42732"
       height="196.99303"
       x="116.47491"
       y="49.154911"
       ry="0" />
    <rect
       style="fill:#b3b3b3;fill-opacity:1;stroke:#1a1a1a;stroke-width:0.264583"
       id="rect736"
       width="195.73714"
       height="14.708569"
       x="117.10285"
       y="50.348572" />
    <text
       xml:space="preserve"
       transform="matrix(0.26458333,0,0,0.26458333,110.87621,88.905262)"
       id="text1883-5"
       style="font-style:normal;font-variant:normal;font-weight:bold;font-stretch:normal;font-size:26.6667px;font-family:sans-serif;-inkscape-font-specification:'sans-serif Bold';white-space:pre;shape-inside:url(#rect1885-3);display:inline;fill:#000000;fill-opacity:1;stroke:#00ffff"><tspan
         x="134.70312"
         y="539.6179"
         id="tspan1479">POST</tspan></text>
    <rect
       style="fill:#f9f9f9;fill-opacity:1;stroke:#1a1a1a;stroke-width:0.265793"
       id="rect1463"
       width="192.34164"
       height="174.8045"
       x="118.23489"
       y="67.32061"
       ry="13.053583" />
    <text
       xml:space="preserve"
       transform="matrix(0.26458333,0,0,0.26458333,108.61714,-4.5257143)"
       id="text1605"
       style="font-style:normal;font-variant:normal;font-weight:bold;font-stretch:normal;font-size:26.6667px;font-family:sans-serif;-inkscape-font-specification:'sans-serif Bold';white-space:pre;shape-inside:url(#rect1607);display:inline;fill:#000000;fill-opacity:1;stroke:#1a1a1a" />
    <text
       xml:space="preserve"
       style="font-style:normal;font-variant:normal;font-weight:bold;font-stretch:normal;font-size:7.05556px;font-family:sans-serif;-inkscape-font-specification:'sans-serif Bold';fill:#000000;fill-opacity:1;stroke:#1a1a1a;stroke-width:0.264583"
       x="135.77142"
       y="61.097141"
       id="text1715"><tspan
         sodipodi:role="line"
         id="tspan1713"
         style="stroke-width:0.264583"
         x="135.77142"
         y="61.097141">Csc 203 tutorial answer</tspan></text>
    <text
       xml:space="preserve"
       style="font-style:normal;font-variant:normal;font-weight:bold;font-stretch:normal;font-size:7.05556px;font-family:sans-serif;-inkscape-font-specification:'sans-serif Bold';white-space:pre;inline-size:144.59;display:inline;fill:#000000;fill-opacity:1;stroke:#1a1a1a;stroke-width:0.264583"
       x="53.742855"
       y="124.45714"
       id="text1719"
       transform="matrix(1.1058202,0,0,1.0620419,70.673252,-62.231509)"><tspan
         x="53.742855"
         y="124.45714"
         id="tspan1481">
</tspan><tspan
         x="53.742855"
         y="133.27659"
         id="tspan1485"><tspan
           style="font-weight:normal;-inkscape-font-specification:sans-serif"
           id="tspan1483">(b) State two different ways of forming </tspan></tspan><tspan
         x="53.742855"
         y="142.09603"
         id="tspan1489"><tspan
           style="font-weight:normal;-inkscape-font-specification:sans-serif"
           id="tspan1487">the 1’s complement of an n-bit binary 
</tspan></tspan><tspan
         x="53.742855"
         y="150.91549"
         id="tspan1493"><tspan
           style="font-weight:normal;-inkscape-font-specification:sans-serif"
           id="tspan1491">number.
</tspan></tspan><tspan
         x="53.742855"
         y="159.73494"
         id="tspan1497"><tspan
           style="font-weight:normal;-inkscape-font-specification:sans-serif"
           id="tspan1495">(c) State three different ways of forming </tspan></tspan><tspan
         x="53.742855"
         y="168.5544"
         id="tspan1501"><tspan
           style="font-weight:normal;-inkscape-font-specification:sans-serif"
           id="tspan1499">the 2’s complement of an n-bit binary 
</tspan></tspan><tspan
         x="53.742855"
         y="177.37386"
         id="tspan1505"><tspan
           style="font-weight:normal;-inkscape-font-specification:sans-serif"
           id="tspan1503">number.
</tspan></tspan><tspan
         x="53.742855"
         y="186.19332"
         id="tspan1509"><tspan
           style="font-weight:normal;-inkscape-font-specification:sans-serif"
           id="tspan1507">(d) If the word length is n = 4 bits </tspan></tspan><tspan
         x="53.742855"
         y="195.01278"
         id="tspan1513"><tspan
           style="font-weight:normal;-inkscape-font-specification:sans-serif"
           id="tspan1511">(including sign), what decimal number </tspan></tspan><tspan
         x="53.742855"
         y="203.83223"
         id="tspan1517"><tspan
           style="font-weight:normal;-inkscape-font-specification:sans-serif"
           id="tspan1515">does 
</tspan></tspan><tspan
         x="53.742855"
         y="212.65169"
         id="tspan1521"><tspan
           style="font-weight:normal;-inkscape-font-specification:sans-serif"
           id="tspan1519">10002 represent in sign and magnitude?
</tspan></tspan><tspan
         x="53.742855"
         y="221.47115"
         id="tspan1525"><tspan
           style="font-weight:normal;-inkscape-font-specification:sans-serif"
           id="tspan1523">In 2’s complement?
</tspan></tspan><tspan
         x="53.742855"
         y="230.29061"
         id="tspan1529"><tspan
           style="font-weight:normal;-inkscape-font-specification:sans-serif"
           id="tspan1527">In 1’s complement?
</tspan></tspan><tspan
         x="53.742855"
         y="239.11007"
         id="tspan1533"><tspan
           style="font-weight:normal;-inkscape-font-specification:sans-serif"
           id="tspan1531">(e) Given a negative number </tspan></tspan><tspan
         x="53.742855"
         y="247.92952"
         id="tspan1537"><tspan
           style="font-weight:normal;-inkscape-font-specification:sans-serif"
           id="tspan1535">represented in 2’s complement, how do </tspan></tspan><tspan
         x="53.742855"
         y="256.74898"
         id="tspan1541"><tspan
           style="font-weight:normal;-inkscape-font-specification:sans-serif"
           id="tspan1539">you find 
</tspan></tspan><tspan
         x="53.742855"
         y="265.56844"
         id="tspan1545"><tspan
           style="font-weight:normal;-inkscape-font-specification:sans-serif"
           id="tspan1543">its magnitude?
</tspan></tspan><tspan
         x="53.742855"
         y="274.3879"
         id="tspan1549"><tspan
           style="font-weight:normal;-inkscape-font-specification:sans-serif"
           id="tspan1547">Given a negative number represented in </tspan></tspan><tspan
         x="53.742855"
         y="283.20736"
         id="tspan1553"><tspan
           style="font-weight:normal;-inkscape-font-specification:sans-serif"
           id="tspan1551">1’s complement, how do you find </tspan></tspan></text>
    <rect
       style="fill:#b3b3b3;fill-opacity:1;stroke:#1a1a1a;stroke-width:0.210204"
       id="rect2024"
       width="190.13438"
       height="5.7115216"
       x="118.7728"
       y="242.09853"
       ry="0.71393818" />
    <rect
       style="fill:#ffffff;fill-opacity:1;stroke:#1a1a1a;stroke-width:0.102403"
       id="rect2024-2"
       width="44.287899"
       height="5.8193226"
       x="129.46748"
       y="242.04463"
       ry="0.72741324" />
    <path
       sodipodi:type="star"
       style="fill:#000000;fill-opacity:1;stroke:#1a1a1a;stroke-width:0.264583"
       id="path2100"
       inkscape:flatsided="true"
       sodipodi:sides="3"
       sodipodi:cx="-56.005714"
       sodipodi:cy="169.71428"
       sodipodi:r1="39.721039"
       sodipodi:r2="8.5131998"
       sodipodi:arg1="1.2670618"
       sodipodi:arg2="2.3142594"
       inkscape:rounded="0"
       inkscape:randomized="0"
       d="m -44.125713,207.61714 -50.644838,-46.56591 65.649672,-20.57676 z"
       inkscape:transform-center-x="2.0713256"
       inkscape:transform-center-y="-0.11378931"
       transform="matrix(-0.08639478,-0.10404567,0.09258364,-0.09709061,102.17002,255.49399)" />
    <rect
       style="fill:#b3b3b3;fill-opacity:1;stroke:#1a1a1a;stroke-width:0.28847"
       id="rect1630"
       width="105.19897"
       height="298.67325"
       x="2.8405192"
       y="-3.9480567"
       ry="1.2873807" />
    <path
       sodipodi:type="star"
       style="fill:#000000;fill-opacity:1;stroke:#1a1a1a;stroke-width:0.264583"
       id="path2100-1"
       inkscape:flatsided="true"
       sodipodi:sides="3"
       sodipodi:cx="-56.005714"
       sodipodi:cy="169.71428"
       sodipodi:r1="39.721039"
       sodipodi:r2="8.5131998"
       sodipodi:arg1="1.2670618"
       sodipodi:arg2="2.3142594"
       inkscape:rounded="0"
       inkscape:randomized="0"
       d="m -44.125713,207.61714 -50.644838,-46.56591 65.649672,-20.57676 z"
       inkscape:transform-center-x="-1.9737832"
       inkscape:transform-center-y="0.18197857"
       transform="matrix(0.09054022,0.10045909,-0.08857303,0.10076277,326.87569,233.08715)" />
    <rect
       style="fill:#b3b3b3;fill-opacity:1;stroke:#1a1a1a;stroke-width:0.264583"
       id="rect2829"
       width="191.21143"
       height="8.485714"
       x="114.84"
       y="249.48"
       ry="1.1314253" />
    <text
       xml:space="preserve"
       transform="matrix(0.26458333,0,0,0.26458333,126.71621,113.23098)"
       id="text1883-8"
       style="font-style:normal;font-variant:normal;font-weight:bold;font-stretch:normal;font-size:26.6667px;font-family:sans-serif;-inkscape-font-specification:'sans-serif Bold';white-space:pre;shape-inside:url(#rect1885-2);display:inline;fill:#000000;fill-opacity:1;stroke:#00ffff"><tspan
         x="134.70312"
         y="539.6179"
         id="tspan1555">EDIT</tspan></text>
    <text
       xml:space="preserve"
       transform="matrix(0.26458333,0,0,0.26458333,85.984781,113.7967)"
       id="text1883-57"
       style="font-style:normal;font-variant:normal;font-weight:bold;font-stretch:normal;font-size:26.6667px;font-family:sans-serif;-inkscape-font-specification:'sans-serif Bold';white-space:pre;shape-inside:url(#rect1885-12);display:inline;fill:#000000;fill-opacity:1;stroke:#00ffff"><tspan
         x="134.70312"
         y="539.6179"
         id="tspan1557">SAVE</tspan></text>
    <text
       xml:space="preserve"
       transform="matrix(0.29648807,0,0,0.23222538,120.49906,-4.7793131)"
       id="text796"
       style="font-size:48px;font-family:sans-serif;-inkscape-font-specification:sans-serif;white-space:pre;shape-inside:url(#rect798);display:inline;fill:#000000;stroke:#00ffff"><tspan
         x="-372.03516"
         y="131.45592"
         id="tspan1561"><tspan
           style="font-weight:bold;-inkscape-font-specification:'sans-serif Bold'"
           id="tspan1559">X</tspan></tspan></text>
    <text
       xml:space="preserve"
       transform="matrix(0.26458333,0,0,0.26458333,95.039997,-1.1314286)"
       id="text852"
       style="font-style:normal;font-variant:normal;font-weight:bold;font-stretch:normal;font-size:42.6667px;font-family:sans-serif;-inkscape-font-specification:'sans-serif Bold';white-space:pre;shape-inside:url(#rect854);display:inline;fill:#000000;stroke:#1a1a1a"><tspan
         x="-258.71484"
         y="107.34604"
         id="tspan1565"><tspan
           style="stroke:#00ffff"
           id="tspan1563">FilesMenu</tspan></tspan></text>
    <text
       xml:space="preserve"
       transform="matrix(0.26458333,0,0,0.26458333,108.61714,-4.5257143)"
       id="text858"
       style="font-style:normal;font-variant:normal;font-weight:bold;font-stretch:normal;font-size:48px;font-family:sans-serif;-inkscape-font-specification:'sans-serif Bold';white-space:pre;shape-inside:url(#rect860);display:inline;fill:#000000;stroke:#1a1a1a" />
    <text
       xml:space="preserve"
       style="font-style:normal;font-variant:normal;font-weight:normal;font-stretch:normal;font-size:7.05556px;font-family:sans-serif;-inkscape-font-specification:sans-serif;fill:#000000;stroke:#000000;stroke-width:0.264583"
       x="14.142859"
       y="61.662853"
       id="text868"><tspan
         sodipodi:role="line"
         id="tspan866"
         style="font-style:normal;font-variant:normal;font-weight:normal;font-stretch:normal;font-size:7.05556px;font-family:sans-serif;-inkscape-font-specification:sans-serif;stroke:#000000;stroke-width:0.264583"
         x="14.142859"
         y="61.662853">MyFiles</tspan></text>
    <text
       xml:space="preserve"
       style="font-style:normal;font-variant:normal;font-weight:normal;font-stretch:normal;font-size:7.05556px;font-family:sans-serif;-inkscape-font-specification:sans-serif;fill:#000000;stroke:#000000;stroke-width:0.264583"
       x="29.417143"
       y="76.371429"
       id="text872"><tspan
         sodipodi:role="line"
         id="tspan870"
         style="stroke:#000000;stroke-width:0.264583"
         x="29.417143"
         y="76.371429">Computer Science</tspan><tspan
         sodipodi:role="line"
         style="stroke:#000000;stroke-width:0.264583"
         x="29.417143"
         y="85.19088"
         id="tspan2398" /><tspan
         sodipodi:role="line"
         style="stroke:#000000;stroke-width:0.264583"
         x="29.417143"
         y="94.01033"
         id="tspan2406" /><tspan
         sodipodi:role="line"
         style="stroke:#000000;stroke-width:0.264583"
         x="29.417143"
         y="102.82978"
         id="tspan2408" /><tspan
         sodipodi:role="line"
         style="stroke:#000000;stroke-width:0.264583"
         x="29.417143"
         y="111.64923"
         id="tspan874">Matematics</tspan><tspan
         sodipodi:role="line"
         style="stroke:#000000;stroke-width:0.264583"
         x="29.417143"
         y="120.46868"
         id="tspan876">Geography</tspan><tspan
         sodipodi:role="line"
         style="stroke:#000000;stroke-width:0.264583"
         x="29.417143"
         y="129.28813"
         id="tspan878">Government</tspan></text>
    <text
       xml:space="preserve"
       style="font-style:normal;font-variant:normal;font-weight:bold;font-stretch:normal;font-size:7.05556px;font-family:sans-serif;-inkscape-font-specification:'sans-serif Bold';fill:#000000;fill-opacity:1;stroke:#000000;stroke-width:0.264583"
       x="49.217144"
       y="83.160004"
       id="text2402"><tspan
         sodipodi:role="line"
         id="tspan2400"
         style="stroke-width:0.264583"
         x="49.217144"
         y="83.160004" /><tspan
         sodipodi:role="line"
         style="stroke-width:0.264583"
         id="tspan2404"
         x="49.217144"
         y="91.979454" /></text>
    <path
       sodipodi:type="star"
       style="fill:#000000;fill-opacity:1;stroke:#000000;stroke-width:0.264583"
       id="path2462"
       inkscape:flatsided="true"
       sodipodi:sides="3"
       sodipodi:cx="-70.714287"
       sodipodi:cy="43.559998"
       sodipodi:r1="5.8243852"
       sodipodi:r2="2.9121926"
       sodipodi:arg1="0.5070985"
       sodipodi:arg2="1.5542961"
       inkscape:rounded="0"
       inkscape:randomized="0"
       d="m -65.622858,46.388569 -10.086758,0.166449 4.89923,-8.818613 z"
       inkscape:transform-center-x="-10.694114"
       inkscape:transform-center-y="-2.8879959"
       transform="matrix(-0.61982937,-0.04792246,0.0390386,-0.76088145,-36.14352,87.790301)" />
    <path
       sodipodi:type="star"
       style="fill:#000000;fill-opacity:1;stroke:#000000;stroke-width:0.264583"
       id="path2462-4"
       inkscape:flatsided="true"
       sodipodi:sides="3"
       sodipodi:cx="-70.714287"
       sodipodi:cy="43.559998"
       sodipodi:r1="5.8243852"
       sodipodi:r2="2.9121926"
       sodipodi:arg1="0.5070985"
       sodipodi:arg2="1.5542961"
       inkscape:rounded="0"
       inkscape:randomized="0"
       d="m -65.622858,46.388569 -10.086758,0.166449 4.89923,-8.818613 z"
       inkscape:transform-center-x="-10.694114"
       inkscape:transform-center-y="-2.8879959"
       transform="matrix(-0.61982937,-0.04792246,0.0390386,-0.76088145,-22.42473,102.79771)" />
    <path
       sodipodi:type="star"
       style="fill:#000000;fill-opacity:1;stroke:#000000;stroke-width:0.264583"
       id="path2462-46"
       inkscape:flatsided="true"
       sodipodi:sides="3"
       sodipodi:cx="-70.714287"
       sodipodi:cy="43.559998"
       sodipodi:r1="5.8243852"
       sodipodi:r2="2.9121926"
       sodipodi:arg1="0.5070985"
       sodipodi:arg2="1.5542961"
       inkscape:rounded="0"
       inkscape:randomized="0"
       d="m -65.622858,46.388569 -10.086758,0.166449 4.89923,-8.818613 z"
       inkscape:transform-center-x="-1.1138666"
       inkscape:transform-center-y="0.10383961"
       transform="matrix(0.0042728,0.62166451,-0.76147315,0.02496469,56.19894,152.63605)" />
    <path
       sodipodi:type="star"
       style="fill:#000000;fill-opacity:1;stroke:#000000;stroke-width:0.264583"
       id="path2462-46-7"
       inkscape:flatsided="true"
       sodipodi:sides="3"
       sodipodi:cx="-70.714287"
       sodipodi:cy="43.559998"
       sodipodi:r1="5.8243852"
       sodipodi:r2="2.9121926"
       sodipodi:arg1="0.5070985"
       sodipodi:arg2="1.5542961"
       inkscape:rounded="0"
       inkscape:randomized="0"
       d="m -65.622858,46.388569 -10.086758,0.166449 4.89923,-8.818613 z"
       inkscape:transform-center-x="-1.121079"
       inkscape:transform-center-y="-0.074887903"
       transform="matrix(0.00430047,-0.4483402,-0.76640382,-0.01800436,56.892657,87.391831)" />
    <path
       sodipodi:type="star"
       style="fill:#000000;fill-opacity:1;stroke:#000000;stroke-width:0.264583"
       id="path2462-46-77"
       inkscape:flatsided="true"
       sodipodi:sides="3"
       sodipodi:cx="-70.714287"
       sodipodi:cy="43.559998"
       sodipodi:r1="5.8243852"
       sodipodi:r2="2.9121926"
       sodipodi:arg1="0.5070985"
       sodipodi:arg2="1.5542961"
       inkscape:rounded="0"
       inkscape:randomized="0"
       d="m -65.622858,46.388569 -10.086758,0.166449 4.89923,-8.818613 z"
       inkscape:transform-center-x="-1.1138666"
       inkscape:transform-center-y="0.10383961"
       transform="matrix(0.0042728,0.62166451,-0.76147315,0.02496469,57.248851,168.92017)" />
    <text
       xml:space="preserve"
       style="font-style:normal;font-variant:normal;font-weight:normal;font-stretch:normal;font-size:7.05556px;font-family:sans-serif;-inkscape-font-specification:sans-serif;fill:#000000;fill-opacity:1;stroke:#000000;stroke-width:0.264583"
       x="44.691429"
       y="85.422859"
       id="text2536"><tspan
         sodipodi:role="line"
         id="tspan2534"
         style="font-style:normal;font-variant:normal;font-weight:normal;font-stretch:normal;font-family:sans-serif;-inkscape-font-specification:sans-serif;stroke-width:0.264583"
         x="44.691429"
         y="85.422859">Comp pdf.pdf</tspan><tspan
         sodipodi:role="line"
         style="font-style:normal;font-variant:normal;font-weight:normal;font-stretch:normal;font-family:sans-serif;-inkscape-font-specification:sans-serif;stroke-width:0.264583"
         x="44.691429"
         y="94.24231"
         id="tspan2538">Csc Assin.doc</tspan><tspan
         sodipodi:role="line"
         style="font-style:normal;font-variant:normal;font-weight:normal;font-stretch:normal;font-family:sans-serif;-inkscape-font-specification:sans-serif;stroke-width:0.264583"
         x="44.691429"
         y="103.06176"
         id="tspan2540">Csc 203 tut.pdf</tspan></text>
    <text
       xml:space="preserve"
       transform="matrix(0.26458333,0,0,0.26458333,108.61714,-4.5257143)"
       id="text2542"
       style="font-style:normal;font-variant:normal;font-weight:normal;font-stretch:normal;font-size:26.6667px;font-family:sans-serif;-inkscape-font-specification:sans-serif;white-space:pre;shape-inside:url(#rect2544);display:inline;fill:none;fill-opacity:1;stroke:#000000" />
    <rect
       style="fill:none;fill-opacity:1;stroke:#000000;stroke-width:1.66541;stroke-dasharray:none"
       id="rect2600"
       width="103.99101"
       height="296.8996"
       x="2.8787773"
       y="-3.3440819"
       ry="1.2824709" />
    <path
       style="fill:#4d4d4d;fill-opacity:1;stroke:#666666;stroke-width:1.565;stroke-dasharray:none"
       d="m 5.09143,138.6 h 100.69714 -1.69714"
       id="path3001" />
    <path
       style="fill:#4d4d4d;fill-opacity:1;stroke:#666666;stroke-width:1.58249;stroke-dasharray:none"
       d="m 4.52572,36.205713 h 102.95999 -1.73528"
       id="path3001-7" />
    <path
       style="fill:#4d4d4d;fill-opacity:1;stroke:#666666;stroke-width:1.58249;stroke-dasharray:none"
       d="m 3.96001,12.640041 h 102.95998 -1.73528"
       id="path3001-7-0" />
    <g
       id="g3190"
       transform="matrix(0.8584133,0,0,0.38527275,90.583972,196.0416)">
      <rect
         style="fill:#000000;fill-opacity:1;stroke:#666666;stroke-width:1.82797;stroke-dasharray:none"
         id="rect3129"
         width="18.405602"
         height="3.1313169"
         x="-97.171371"
         y="246.21721"
         ry="1.0437458" />
      <path
         sodipodi:type="star"
         style="fill:#000000;fill-opacity:1;stroke:#666666;stroke-width:1.565;stroke-dasharray:none"
         id="path3183"
         inkscape:flatsided="true"
         sodipodi:sides="3"
         sodipodi:cx="-100.69714"
         sodipodi:cy="222.32571"
         sodipodi:r1="11.933755"
         sodipodi:r2="5.9668779"
         sodipodi:arg1="0.5485494"
         sodipodi:arg2="1.595747"
         inkscape:rounded="0"
         inkscape:randomized="0"
         d="m -90.514287,228.54857 -20.663433,-0.51567 10.7783,-17.63723 z"
         inkscape:transform-center-x="0.021960872"
         inkscape:transform-center-y="2.1727123"
         transform="matrix(-1.0161568,0.02093695,-0.02904233,-0.73255894,-185.24967,402.05657)" />
      <rect
         style="fill:#000000;fill-opacity:1;stroke:#666666;stroke-width:1.565;stroke-dasharray:none"
         id="rect3185"
         width="9.0514288"
         height="18.668571"
         x="-93.342857"
         y="214.40572"
         ry="1.0437458" />
    </g>
    <g
       id="g3388"
       transform="matrix(1.0134376,0,0,0.59699145,106.11988,165.55649)">
      <ellipse
         style="fill:#000000;fill-opacity:1;stroke:#808080;stroke-width:1.565;stroke-dasharray:none"
         id="path3244"
         cx="-66.75428"
         cy="195.4543"
         rx="5.6571426"
         ry="5.9400001" />
      <g
         id="g3378">
        <g
           id="g3360"
           transform="translate(-6.2228572,-48.651429)">
          <ellipse
             style="fill:#000000;fill-opacity:1;stroke:#808080;stroke-width:1.39643;stroke-dasharray:none"
             id="path3298"
             cx="-56.005714"
             cy="247.5"
             rx="5.7414279"
             ry="4.8928561" />
        </g>
        <g
           id="g3357"
           transform="matrix(-0.81545558,0.00923017,-0.01354678,-0.55561495,-130.49751,321.45243)"
           inkscape:transform-center-x="0.0056207908"
           inkscape:transform-center-y="0.011292231">
          <path
             sodipodi:type="star"
             style="fill:#000000;fill-opacity:1;stroke:#666666;stroke-width:1.565;stroke-dasharray:none"
             id="path3183-1"
             inkscape:flatsided="true"
             sodipodi:sides="3"
             sodipodi:cx="-100.69714"
             sodipodi:cy="222.32571"
             sodipodi:r1="11.933755"
             sodipodi:r2="5.9668779"
             sodipodi:arg1="0.5485494"
             sodipodi:arg2="1.595747"
             inkscape:rounded="0"
             inkscape:randomized="0"
             d="m -90.514287,228.54857 -20.663433,-0.51567 10.7783,-17.63723 z"
             inkscape:transform-center-x="0.021960872"
             inkscape:transform-center-y="2.1727123"
             transform="matrix(-0.86695941,0.0097473,-0.02477818,-0.34104657,-164.36459,283.98588)" />
          <rect
             style="fill:#000000;fill-opacity:1;stroke:#666666;stroke-width:0.986322;stroke-dasharray:none"
             id="rect3185-4"
             width="7.7224512"
             height="8.6912489"
             x="-85.952011"
             y="196.62407"
             ry="0.48592117" />
        </g>
        <ellipse
           style="fill:#000000;fill-opacity:1;stroke:#808080;stroke-width:1.565;stroke-dasharray:none"
           id="path3300"
           cx="-71.845718"
           cy="199.41428"
           rx="5.0914283"
           ry="4.8085713" />
      </g>
    </g>
    <g
       id="g3450"
       transform="translate(109.18285,99)">
      <rect
         style="fill:#000000;fill-opacity:1;stroke:#808080;stroke-width:1.565;stroke-dasharray:none"
         id="rect3442"
         width="16.405714"
         height="3.96"
         x="-54.874287"
         y="182.72571"
         ry="1.1313998" />
      <rect
         style="fill:#000000;fill-opacity:1;stroke:#808080;stroke-width:1.565;stroke-dasharray:none"
         id="rect3446"
         width="3.3942857"
         height="16.405714"
         x="-48.085716"
         y="177.63428"
         ry="0.5657143" />
    </g>
    <text
       xml:space="preserve"
       transform="matrix(0.26458333,0,0,0.26458333,119.93143,-5.0914286)"
       id="text3830"
       style="font-style:normal;font-variant:normal;font-weight:normal;font-stretch:normal;font-size:29.3333px;font-family:sans-serif;-inkscape-font-specification:sans-serif;white-space:pre;shape-inside:url(#rect3832);display:inline;opacity:0.99;fill:#000000;fill-opacity:1;stroke:#000000;stroke-width:1.37953;stroke-dasharray:none"><tspan
         x="-342.10156"
         y="50.28119"
         id="tspan1567">Files Edit View</tspan></text>
  </g>
</svg>
